# xmcd CD database file
#
# Track frame offsets:
#	150
#	24356
#	42029
#	71249
#	88951
#	93694
#	108640
#	122837
#	139846
#	173915
#	193727
#	208831
#	224635
#
# Disc length: 3485 seconds
#
# Revision: 4
# Processed by: cddbd v1.5.2PL0 Copyright (c) Steve Scherf et al.
# Submitted via: CDex 1.75
#
DISCID=cf0d9b0d
DTITLE=Billie Holiday - Lady In Satin: The Centennial Edition [CD2]
DYEAR=2015
DGENRE=Jazz
TTITLE0=You Don't Know What Love Is (Takes 1-3)
TTITLE1=I'll Be Around (Takes 1 and 2)
TTITLE2=I'll Be Around (Takes 3 and 4 plus inserts)
TTITLE3=For Heaven's Sake (Take 1)
TTITLE4=But Beautiful (Take 1)
TTITLE5=For All We Know (Take 1)
TTITLE6=For All We Know (Take 2)
TTITLE7=For All We Know (Takes 3 and 4)
TTITLE8=It's Easy to Remember (Takes 1 and 2)
TTITLE9=It's Easy to Remember (Takes 3-7)
TTITLE10=I'm a Fool to Want You (Take 1)
TTITLE11=I'm a Fool to Want You (Takes 2 and 3)
TTITLE12=The End of a Love Affair (Takes 1-4)
EXTD=YEAR: 2015
EXTT0=
EXTT1=
EXTT2=
EXTT3=
EXTT4=
EXTT5=
EXTT6=
EXTT7=
EXTT8=
EXTT9=
EXTT10=
EXTT11=
EXTT12=
PLAYORDER=
